<?xml version="1.0" encoding="UTF-8" standalone="no"?>
<!DOCTYPE svg PUBLIC "-//W3C//DTD SVG 1.1//EN" "http://www.w3.org/Graphics/SVG/1.1/DTD/svg11.dtd">
<!-- 由 Microsoft Visio, SVG Export 生成 Expert-Interpretability.svg Page-1 -->
<svg xmlns="http://www.w3.org/2000/svg" xmlns:xlink="http://www.w3.org/1999/xlink" xmlns:ev="http://www.w3.org/2001/xml-events"
		xmlns:v="http://schemas.microsoft.com/visio/2003/SVGExtensions/" width="6.81102in" height="3.93701in"
		viewBox="0 0 490.394 283.465" xml:space="preserve" color-interpolation-filters="sRGB" class="st28">
	<v:documentProperties v:langID="2052" v:metric="true" v:viewMarkup="false">
		<v:userDefs>
			<v:ud v:nameU="msvNoAutoConnect" v:val="VT0(1):26"/>
		</v:userDefs>
	</v:documentProperties>

	<style type="text/css">
	<![CDATA[
		.st1 {fill:#f2f2f2;stroke:none;stroke-linecap:round;stroke-linejoin:round;stroke-width:0.75}
		.st2 {fill:#ffffff;stroke:none;stroke-linecap:round;stroke-linejoin:round;stroke-width:0.75}
		.st3 {fill:none;stroke:none;stroke-linecap:round;stroke-linejoin:round;stroke-width:0.75}
		.st4 {fill:#000000;font-family:微软雅黑;font-size:1.83334em;font-weight:bold}
		.st5 {fill:#000000;font-family:微软雅黑;font-size:1.33333em;font-weight:bold}
		.st6 {fill:#e1ffef;stroke:#000000;stroke-linecap:round;stroke-linejoin:round;stroke-width:0.75}
		.st7 {fill:#000000;font-family:微软雅黑;font-size:1.00001em}
		.st8 {fill:#000000;font-family:微软雅黑;font-size:1.5em;font-weight:bold}
		.st9 {fill:#d8d8d8;stroke:none;stroke-linecap:round;stroke-linejoin:round;stroke-width:0.75}
		.st10 {fill:#000000;font-family:微软雅黑;font-size:1.99999em}
		.st11 {marker-end:url(#mrkr3-34);stroke:#000000;stroke-linecap:round;stroke-linejoin:round;stroke-width:1}
		.st12 {fill:#000000;fill-opacity:1;stroke:#000000;stroke-opacity:1;stroke-width:0.28409090909091}
		.st13 {marker-end:url(#mrkr4-52);stroke:#000000;stroke-linecap:round;stroke-linejoin:round;stroke-width:1.25}
		.st14 {fill:#000000;fill-opacity:1;stroke:#000000;stroke-opacity:1;stroke-width:0.3315649867374}
		.st15 {fill:#edf7fa;stroke:#000000;stroke-linecap:round;stroke-linejoin:round;stroke-width:0.75}
		.st16 {fill:#dff1de;stroke:none;stroke-linecap:round;stroke-linejoin:round;stroke-width:0.75}
		.st17 {fill:#000000;font-family:微软雅黑;font-size:1.16666em}
		.st18 {fill:#ebf1df;stroke:#000000;stroke-linecap:round;stroke-linejoin:round;stroke-width:0.75}
		.st19 {fill:#eeeaf2;stroke:#000000;stroke-linecap:round;stroke-linejoin:round;stroke-width:0.75}
		.st20 {fill:#dbeef3;stroke:#000000;stroke-linecap:round;stroke-linejoin:round;stroke-width:0.75}
		.st21 {fill:#fcebdd;stroke:#000000;stroke-linecap:round;stroke-linejoin:round;stroke-width:0.75}
		.st22 {fill:#f2dcda;stroke:#000000;stroke-linecap:round;stroke-linejoin:round;stroke-width:0.75}
		.st23 {fill:#fff2cc;stroke:#000000;stroke-linecap:round;stroke-linejoin:round;stroke-width:0.75}
		.st24 {marker-end:url(#mrkr3-185);stroke:#000000;stroke-dasharray:3.75,3.75;stroke-linecap:round;stroke-linejoin:round;stroke-width:1.25}
		.st25 {fill:#465a69;stroke:none;stroke-linecap:round;stroke-linejoin:round;stroke-width:0.75}
		.st26 {fill:#ffffff;font-family:微软雅黑;font-size:1.16666em}
		.st27 {font-size:1em}
		.st28 {fill:none;fill-rule:evenodd;font-size:12px;overflow:visible;stroke-linecap:square;stroke-miterlimit:3}
	]]>
	</style>

	<defs id="Markers">
		<g id="lend3">
			<path d="M 2 1 L 0 0 L 2 -1 " style="stroke-linecap:round;stroke-linejoin:round;fill:none"/>
		</g>
		<marker id="mrkr3-34" class="st12" v:arrowType="3" v:arrowSize="2" orient="auto" markerUnits="strokeWidth"
				overflow="visible">
			<use xlink:href="#lend3" transform="scale(-3.52,-3.52) "/>
		</marker>
		<g id="lend4">
			<path d="M 2 1 L 0 0 L 2 -1 L 2 1 " style="stroke:none"/>
		</g>
		<marker id="mrkr4-52" class="st14" v:arrowType="4" v:arrowSize="2" v:setback="6.032" refX="-6.032" orient="auto"
				markerUnits="strokeWidth" overflow="visible">
			<use xlink:href="#lend4" transform="scale(-3.016,-3.016) "/>
		</marker>
		<marker id="mrkr3-185" class="st14" v:arrowType="3" v:arrowSize="2" orient="auto" markerUnits="strokeWidth"
				overflow="visible">
			<use xlink:href="#lend3" transform="scale(-3.016,-3.016) "/>
		</marker>
	</defs>
	<g v:mID="0" v:index="1" v:groupContext="foregroundPage">
		<title>页-1</title>
		<v:pageProperties v:drawingScale="0.0393701" v:pageScale="0.0393701" v:drawingUnits="24" v:shadowOffsetX="8.50394"
				v:shadowOffsetY="-8.50394"/>
		<g id="shape1-1" v:mID="1" v:groupContext="shape" transform="translate(8.50394,-4.67715)">
			<title>工作表.1</title>
			<rect x="0" y="8.92914" width="473.386" height="274.535" rx="5.66929" ry="5.66929" class="st1"/>
		</g>
		<g id="shape20-3" v:mID="20" v:groupContext="shape" transform="translate(18,-14.5984)">
			<title>工作表.20</title>
			<rect x="0" y="90.7087" width="127.984" height="192.756" rx="5.66929" ry="5.66929" class="st2"/>
		</g>
		<g id="shape21-5" v:mID="21" v:groupContext="shape" transform="translate(8.50394,-242.362)">
			<title>工作表.21</title>
			<desc>TransCity</desc>
			<v:textBlock v:margins="rect(4,4,4,4)" v:tabSpace="42.5197"/>
			<v:textRect cx="67.3228" cy="265.039" width="134.65" height="36.8504"/>
			<rect x="0" y="246.614" width="134.646" height="36.8504" class="st3"/>
			<text x="15.34" y="271.64" class="st4" v:langID="2052"><v:paragraph v:horizAlign="1"/><v:tabList/>TransCity</text>		</g>
		<g id="shape22-8" v:mID="22" v:groupContext="shape" transform="translate(253.303,-242.362)">
			<title>工作表.22</title>
			<desc>Chain-of-Thought</desc>
			<v:textBlock v:margins="rect(4,4,4,4)" v:tabSpace="42.5197"/>
			<v:textRect cx="89.6896" cy="265.039" width="179.38" height="36.8504"/>
			<rect x="0" y="246.614" width="179.379" height="36.8504" class="st3"/>
			<text x="17.08" y="269.84" class="st5" v:langID="2052"><v:paragraph v:horizAlign="1"/><v:tabList/>Chain-of-Thought</text>		</g>
		<g id="shape24-11" v:mID="24" v:groupContext="shape" transform="translate(71.8583,-165.678)">
			<title>工作表.24</title>
			<desc>Expert 1</desc>
			<v:textBlock v:margins="rect(4,4,4,4)" v:tabSpace="42.5197"/>
			<v:textRect cx="27.4094" cy="271.13" width="54.82" height="24.6684"/>
			<rect x="0" y="258.796" width="54.8188" height="24.6684" rx="5.66929" ry="5.66929" class="st6"/>
			<text x="4.01" y="274.73" class="st7" v:langID="2052"><v:paragraph v:horizAlign="1"/><v:tabList/>Expert 1</text>		</g>
		<g id="shape25-14" v:mID="25" v:groupContext="shape" transform="translate(70.4409,-28.6194)">
			<title>工作表.25</title>
			<desc>Expert n</desc>
			<v:textBlock v:margins="rect(4,4,4,4)" v:tabSpace="42.5197"/>
			<v:textRect cx="28.3465" cy="271.13" width="56.7" height="24.6684"/>
			<rect x="0" y="258.796" width="56.6929" height="24.6684" rx="5.66929" ry="5.66929" class="st6"/>
			<text x="4.77" y="274.73" class="st7" v:langID="2052"><v:paragraph v:horizAlign="1"/><v:tabList/>Expert n</text>		</g>
		<g id="shape26-17" v:mID="26" v:groupContext="shape" transform="translate(71.8177,-99.3473)">
			<title>工作表.26</title>
			<desc>Expert 2</desc>
			<v:textBlock v:margins="rect(4,4,4,4)" v:tabSpace="42.5197"/>
			<v:textRect cx="27.4094" cy="271.13" width="54.82" height="24.6684"/>
			<rect x="0" y="258.796" width="54.8188" height="24.6684" rx="5.66929" ry="5.66929" class="st6"/>
			<text x="4.01" y="274.73" class="st7" v:langID="2052"><v:paragraph v:horizAlign="1"/><v:tabList/>Expert 2</text>		</g>
		<g id="shape30-20" v:mID="30" v:groupContext="shape" transform="translate(34.0157,-197.008)">
			<title>工作表.30</title>
			<desc>Thinking</desc>
			<v:textBlock v:margins="rect(4,4,4,4)" v:tabSpace="42.5197"/>
			<v:textRect cx="49.6063" cy="267.591" width="99.22" height="31.748"/>
			<rect x="0" y="251.717" width="99.2126" height="31.748" rx="11.3386" ry="11.3386" class="st2"/>
			<text x="9.83" y="272.99" class="st8" v:langID="2052"><v:paragraph v:horizAlign="1"/><v:tabList/>Thinking</text>		</g>
		<g id="shape27-23" v:mID="27" v:groupContext="shape" transform="translate(307.556,81.7795) rotate(90)">
			<title>工作表.27</title>
			<desc>Dynamic Router</desc>
			<v:textBlock v:margins="rect(4,4,4,4)" v:tabSpace="42.5197"/>
			<v:textRect cx="90.7087" cy="274.463" width="181.42" height="18.0035"/>
			<rect x="0" y="265.461" width="181.417" height="18.0035" rx="5.66929" ry="5.66929" class="st9"/>
			<text x="44.59" y="278.06" class="st7" v:langID="2052"><v:paragraph v:horizAlign="1"/><v:tabList/>Dynamic Router</text>		</g>
		<g id="shape35-26" v:mID="35" v:groupContext="shape" transform="translate(56.2677,-65.7638)">
			<title>工作表.35</title>
			<desc>…</desc>
			<v:textBlock v:margins="rect(4,4,4,4)" v:tabSpace="42.5197"/>
			<v:textRect cx="42.5197" cy="265.868" width="85.04" height="35.1933"/>
			<rect x="0" y="248.271" width="85.0394" height="35.1933" class="st3"/>
			<text x="32.76" y="273.07" class="st10" v:langID="2052"><v:paragraph v:horizAlign="1"/><v:tabList/>…</text>		</g>
		<g id="shape36-29" v:mID="36" v:groupContext="shape" transform="translate(42.0945,-177.894)">
			<title>工作表.36</title>
			<path d="M0 283.46 L29.76 283.46" class="st11"/>
		</g>
		<g id="shape37-35" v:mID="37" v:groupContext="shape" transform="translate(42.054,-110.838)">
			<title>工作表.37</title>
			<path d="M0 283.46 L29.76 283.46" class="st11"/>
		</g>
		<g id="shape39-40" v:mID="39" v:groupContext="shape" transform="translate(42.0945,-40.1102)">
			<title>工作表.39</title>
			<path d="M0 283.46 L28.62 283.46" class="st11"/>
		</g>
		<g id="shape40-45" v:mID="40" v:groupContext="shape" transform="translate(236.721,-14.5984)">
			<title>工作表.40</title>
			<rect x="0" y="51.4488" width="232.413" height="232.016" rx="5.66929" ry="5.66929" class="st2"/>
		</g>
		<g id="shape41-47" v:mID="41" v:groupContext="shape" transform="translate(127.255,-176.173)">
			<title>工作表.41</title>
			<path d="M0 283.46 L29.83 283.46" class="st13"/>
		</g>
		<g id="group42-53" transform="translate(372.756,-186.042)" v:mID="42" v:groupContext="group">
			<title>工作表.42</title>
			<g id="shape43-54" v:mID="43" v:groupContext="shape">
				<title>工作表.43</title>
				<desc>Reasoning 1</desc>
				<v:textBlock v:margins="rect(4,4,4,4)" v:tabSpace="42.5197" v:verticalAlign="0"/>
				<v:textRect cx="42.5197" cy="260.5" width="85.04" height="45.9283"/>
				<rect x="0" y="237.536" width="85.0394" height="45.9283" rx="5.66929" ry="5.66929" class="st15"/>
				<text x="7.17" y="252.34" class="st7" v:langID="2052"><v:paragraph v:horizAlign="1"/><v:tabList/>Reasoning 1</text>			</g>
			<g id="shape44-57" v:mID="44" v:groupContext="shape" transform="translate(8.50391,-5.05974)">
				<title>工作表.44</title>
				<desc>Data 1</desc>
				<v:textBlock v:margins="rect(4,4,4,4)" v:tabSpace="42.5197"/>
				<v:textRect cx="34.0158" cy="273.449" width="68.04" height="20.0304"/>
				<rect x="0" y="263.434" width="68.0316" height="20.0304" rx="5.66929" ry="5.66929" class="st16"/>
				<text x="12.16" y="277.65" class="st17" v:langID="2052"><v:paragraph v:horizAlign="1"/><v:tabList/>Data 1</text>			</g>
		</g>
		<g id="group45-60" transform="translate(370.689,-114.226)" v:mID="45" v:groupContext="group">
			<title>工作表.45</title>
			<g id="shape46-61" v:mID="46" v:groupContext="shape">
				<title>工作表.46</title>
				<desc>Reasoning 2</desc>
				<v:textBlock v:margins="rect(4,4,4,4)" v:tabSpace="42.5197" v:verticalAlign="0"/>
				<v:textRect cx="42.5197" cy="260.5" width="85.04" height="45.9283"/>
				<rect x="0" y="237.536" width="85.0394" height="45.9283" rx="5.66929" ry="5.66929" class="st15"/>
				<text x="7.17" y="252.34" class="st7" v:langID="2052"><v:paragraph v:horizAlign="1"/><v:tabList/>Reasoning 2</text>			</g>
			<g id="shape47-64" v:mID="47" v:groupContext="shape" transform="translate(8.50391,-5.05974)">
				<title>工作表.47</title>
				<desc>Data 2</desc>
				<v:textBlock v:margins="rect(4,4,4,4)" v:tabSpace="42.5197"/>
				<v:textRect cx="34.0158" cy="273.449" width="68.04" height="20.0304"/>
				<rect x="0" y="263.434" width="68.0316" height="20.0304" rx="5.66929" ry="5.66929" class="st16"/>
				<text x="12.16" y="277.65" class="st17" v:langID="2052"><v:paragraph v:horizAlign="1"/><v:tabList/>Data 2</text>			</g>
		</g>
		<g id="group48-67" transform="translate(370.984,-32.4285)" v:mID="48" v:groupContext="group">
			<title>工作表.48</title>
			<g id="shape49-68" v:mID="49" v:groupContext="shape">
				<title>工作表.49</title>
				<desc>Reasoning n</desc>
				<v:textBlock v:margins="rect(4,4,4,4)" v:tabSpace="42.5197" v:verticalAlign="0"/>
				<v:textRect cx="42.5197" cy="260.5" width="85.04" height="45.9283"/>
				<rect x="0" y="237.536" width="85.0394" height="45.9283" rx="5.66929" ry="5.66929" class="st15"/>
				<text x="6.99" y="252.34" class="st7" v:langID="2052"><v:paragraph v:horizAlign="1"/><v:tabList/>Reasoning n  </text>			</g>
			<g id="shape50-71" v:mID="50" v:groupContext="shape" transform="translate(8.50391,-5.05974)">
				<title>工作表.50</title>
				<desc>Data n</desc>
				<v:textBlock v:margins="rect(4,4,4,4)" v:tabSpace="42.5197"/>
				<v:textRect cx="34.0158" cy="273.449" width="68.04" height="20.0304"/>
				<rect x="0" y="263.434" width="68.0316" height="20.0304" rx="5.66929" ry="5.66929" class="st16"/>
				<text x="11.95" y="277.65" class="st17" v:langID="2052"><v:paragraph v:horizAlign="1"/><v:tabList/>Data n</text>			</g>
		</g>
		<g id="shape51-74" v:mID="51" v:groupContext="shape" transform="translate(370.984,-85.0394)">
			<title>工作表.51</title>
			<desc>…</desc>
			<v:textBlock v:margins="rect(4,4,4,4)" v:tabSpace="42.5197"/>
			<v:textRect cx="42.5197" cy="267.803" width="85.04" height="31.3228"/>
			<rect x="0" y="252.142" width="85.0394" height="31.3228" class="st3"/>
			<text x="32.76" y="275" class="st10" v:langID="2052"><v:paragraph v:horizAlign="1"/><v:tabList/>…</text>		</g>
		<g id="group1027-77" transform="translate(164.369,-160.087)" v:mID="1027" v:groupContext="group">
			<title>工作表.1027</title>
			<g id="shape1000-78" v:mID="1000" v:groupContext="shape" transform="translate(0.040482,-10.4882)">
				<title>工作表.1000</title>
				<rect x="0" y="272.976" width="10.7717" height="10.4882" class="st18"/>
			</g>
			<g id="shape1001-80" v:mID="1001" v:groupContext="shape" transform="translate(10.8121,-10.4882)">
				<title>工作表.1001</title>
				<rect x="0" y="272.976" width="10.7717" height="10.4882" class="st19"/>
			</g>
			<g id="shape1002-82" v:mID="1002" v:groupContext="shape" transform="translate(21.5838,-10.4882)">
				<title>工作表.1002</title>
				<rect x="0" y="272.976" width="10.7717" height="10.4882" class="st20"/>
			</g>
			<g id="shape1003-84" v:mID="1003" v:groupContext="shape" transform="translate(32.3555,-10.4882)">
				<title>工作表.1003</title>
				<rect x="0" y="272.976" width="10.7717" height="10.4882" class="st21"/>
			</g>
			<g id="shape1004-86" v:mID="1004" v:groupContext="shape" transform="translate(43.1271,-10.4882)">
				<title>工作表.1004</title>
				<rect x="0" y="272.976" width="10.7717" height="10.4882" class="st22"/>
			</g>
			<g id="shape1005-88" v:mID="1005" v:groupContext="shape" transform="translate(0.0405073,-20.8346)">
				<title>工作表.1005</title>
				<rect x="0" y="272.976" width="10.7717" height="10.4882" class="st23"/>
			</g>
			<g id="shape1010-90" v:mID="1010" v:groupContext="shape" transform="translate(21.5838,-20.8346)">
				<title>工作表.1010</title>
				<rect x="0" y="272.976" width="10.7717" height="10.4882" class="st22"/>
			</g>
			<g id="shape1011-92" v:mID="1011" v:groupContext="shape" transform="translate(21.5433,0)">
				<title>工作表.1011</title>
				<rect x="0" y="272.976" width="10.7717" height="10.4882" class="st23"/>
			</g>
			<g id="shape1012-94" v:mID="1012" v:groupContext="shape" transform="translate(53.8583,-1.13687E-13) scale(-1,1)">
				<title>工作表.1012</title>
				<rect x="0" y="272.976" width="10.7717" height="10.4882" class="st18"/>
			</g>
			<g id="shape1013-96" v:mID="1013" v:groupContext="shape" transform="translate(43.0867,-2.27374E-13) scale(-1,1)">
				<title>工作表.1013</title>
				<rect x="0" y="272.976" width="10.7717" height="10.4882" class="st19"/>
			</g>
			<g id="shape1015-98" v:mID="1015" v:groupContext="shape" transform="translate(21.5433,-2.27374E-13) scale(-1,1)">
				<title>工作表.1015</title>
				<rect x="0" y="272.976" width="10.7717" height="10.4882" class="st21"/>
			</g>
			<g id="shape1016-100" v:mID="1016" v:groupContext="shape" transform="translate(10.7716,-0.0708325) scale(-1,1)">
				<title>工作表.1016</title>
				<rect x="0" y="272.976" width="10.7717" height="10.4882" class="st22"/>
			</g>
			<g id="shape1018-102" v:mID="1018" v:groupContext="shape" transform="translate(53.8583,-20.8346) scale(-1,1)">
				<title>工作表.1018</title>
				<rect x="0" y="272.976" width="10.7717" height="10.4882" class="st18"/>
			</g>
			<g id="shape1019-104" v:mID="1019" v:groupContext="shape" transform="translate(43.0867,-20.8346) scale(-1,1)">
				<title>工作表.1019</title>
				<rect x="0" y="272.976" width="10.7717" height="10.4882" class="st19"/>
			</g>
			<g id="shape1020-106" v:mID="1020" v:groupContext="shape" transform="translate(21.5433,-20.8346) scale(-1,1)">
				<title>工作表.1020</title>
				<rect x="0" y="272.976" width="10.7717" height="10.4882" class="st21"/>
			</g>
		</g>
		<g id="shape1028-108" v:mID="1028" v:groupContext="shape" transform="translate(127.519,-111.308)">
			<title>工作表.1028</title>
			<path d="M0 283.46 L29.83 283.46" class="st13"/>
		</g>
		<g id="shape1030-113" v:mID="1030" v:groupContext="shape" transform="translate(127.134,-40.7294)">
			<title>工作表.1030</title>
			<path d="M0 283.46 L29.83 283.46" class="st13"/>
		</g>
		<g id="group1031-118" transform="translate(164.369,-94.8898)" v:mID="1031" v:groupContext="group">
			<title>工作表.1031</title>
			<g id="shape1032-119" v:mID="1032" v:groupContext="shape" transform="translate(0.040482,-10.4882)">
				<title>工作表.1032</title>
				<rect x="0" y="272.976" width="10.7717" height="10.4882" class="st18"/>
			</g>
			<g id="shape1033-121" v:mID="1033" v:groupContext="shape" transform="translate(10.8121,-10.4882)">
				<title>工作表.1033</title>
				<rect x="0" y="272.976" width="10.7717" height="10.4882" class="st19"/>
			</g>
			<g id="shape1034-123" v:mID="1034" v:groupContext="shape" transform="translate(21.5838,-10.4882)">
				<title>工作表.1034</title>
				<rect x="0" y="272.976" width="10.7717" height="10.4882" class="st20"/>
			</g>
			<g id="shape1035-125" v:mID="1035" v:groupContext="shape" transform="translate(32.3555,-10.4882)">
				<title>工作表.1035</title>
				<rect x="0" y="272.976" width="10.7717" height="10.4882" class="st21"/>
			</g>
			<g id="shape1036-127" v:mID="1036" v:groupContext="shape" transform="translate(43.1271,-10.4882)">
				<title>工作表.1036</title>
				<rect x="0" y="272.976" width="10.7717" height="10.4882" class="st22"/>
			</g>
			<g id="shape1037-129" v:mID="1037" v:groupContext="shape" transform="translate(0.0405073,-20.8346)">
				<title>工作表.1037</title>
				<rect x="0" y="272.976" width="10.7717" height="10.4882" class="st23"/>
			</g>
			<g id="shape1038-131" v:mID="1038" v:groupContext="shape" transform="translate(21.5838,-20.8346)">
				<title>工作表.1038</title>
				<rect x="0" y="272.976" width="10.7717" height="10.4882" class="st22"/>
			</g>
			<g id="shape1039-133" v:mID="1039" v:groupContext="shape" transform="translate(21.5433,0)">
				<title>工作表.1039</title>
				<rect x="0" y="272.976" width="10.7717" height="10.4882" class="st23"/>
			</g>
			<g id="shape1040-135" v:mID="1040" v:groupContext="shape" transform="translate(53.8583,-1.13687E-13) scale(-1,1)">
				<title>工作表.1040</title>
				<rect x="0" y="272.976" width="10.7717" height="10.4882" class="st18"/>
			</g>
			<g id="shape1041-137" v:mID="1041" v:groupContext="shape" transform="translate(43.0867,-2.27374E-13) scale(-1,1)">
				<title>工作表.1041</title>
				<rect x="0" y="272.976" width="10.7717" height="10.4882" class="st19"/>
			</g>
			<g id="shape1042-139" v:mID="1042" v:groupContext="shape" transform="translate(21.5433,-2.27374E-13) scale(-1,1)">
				<title>工作表.1042</title>
				<rect x="0" y="272.976" width="10.7717" height="10.4882" class="st21"/>
			</g>
			<g id="shape1043-141" v:mID="1043" v:groupContext="shape" transform="translate(10.7716,-0.0708325) scale(-1,1)">
				<title>工作表.1043</title>
				<rect x="0" y="272.976" width="10.7717" height="10.4882" class="st22"/>
			</g>
			<g id="shape1044-143" v:mID="1044" v:groupContext="shape" transform="translate(53.8583,-20.8346) scale(-1,1)">
				<title>工作表.1044</title>
				<rect x="0" y="272.976" width="10.7717" height="10.4882" class="st18"/>
			</g>
			<g id="shape1045-145" v:mID="1045" v:groupContext="shape" transform="translate(43.0867,-20.8346) scale(-1,1)">
				<title>工作表.1045</title>
				<rect x="0" y="272.976" width="10.7717" height="10.4882" class="st19"/>
			</g>
			<g id="shape1046-147" v:mID="1046" v:groupContext="shape" transform="translate(21.5433,-20.8346) scale(-1,1)">
				<title>工作表.1046</title>
				<rect x="0" y="272.976" width="10.7717" height="10.4882" class="st21"/>
			</g>
		</g>
		<g id="group1063-149" transform="translate(164.409,-25.2922)" v:mID="1063" v:groupContext="group">
			<title>工作表.1063</title>
			<g id="shape1064-150" v:mID="1064" v:groupContext="shape" transform="translate(0.040482,-10.4882)">
				<title>工作表.1064</title>
				<rect x="0" y="272.976" width="10.7717" height="10.4882" class="st18"/>
			</g>
			<g id="shape1065-152" v:mID="1065" v:groupContext="shape" transform="translate(10.8121,-10.4882)">
				<title>工作表.1065</title>
				<rect x="0" y="272.976" width="10.7717" height="10.4882" class="st19"/>
			</g>
			<g id="shape1066-154" v:mID="1066" v:groupContext="shape" transform="translate(21.5838,-10.4882)">
				<title>工作表.1066</title>
				<rect x="0" y="272.976" width="10.7717" height="10.4882" class="st20"/>
			</g>
			<g id="shape1067-156" v:mID="1067" v:groupContext="shape" transform="translate(32.3555,-10.4882)">
				<title>工作表.1067</title>
				<rect x="0" y="272.976" width="10.7717" height="10.4882" class="st21"/>
			</g>
			<g id="shape1068-158" v:mID="1068" v:groupContext="shape" transform="translate(43.1271,-10.4882)">
				<title>工作表.1068</title>
				<rect x="0" y="272.976" width="10.7717" height="10.4882" class="st22"/>
			</g>
			<g id="shape1069-160" v:mID="1069" v:groupContext="shape" transform="translate(0.0405073,-20.8346)">
				<title>工作表.1069</title>
				<rect x="0" y="272.976" width="10.7717" height="10.4882" class="st23"/>
			</g>
			<g id="shape1070-162" v:mID="1070" v:groupContext="shape" transform="translate(21.5838,-20.8346)">
				<title>工作表.1070</title>
				<rect x="0" y="272.976" width="10.7717" height="10.4882" class="st22"/>
			</g>
			<g id="shape1071-164" v:mID="1071" v:groupContext="shape" transform="translate(21.5433,0)">
				<title>工作表.1071</title>
				<rect x="0" y="272.976" width="10.7717" height="10.4882" class="st23"/>
			</g>
			<g id="shape1072-166" v:mID="1072" v:groupContext="shape" transform="translate(53.8583,-1.13687E-13) scale(-1,1)">
				<title>工作表.1072</title>
				<rect x="0" y="272.976" width="10.7717" height="10.4882" class="st18"/>
			</g>
			<g id="shape1073-168" v:mID="1073" v:groupContext="shape" transform="translate(43.0867,-2.27374E-13) scale(-1,1)">
				<title>工作表.1073</title>
				<rect x="0" y="272.976" width="10.7717" height="10.4882" class="st19"/>
			</g>
			<g id="shape1074-170" v:mID="1074" v:groupContext="shape" transform="translate(21.5433,-2.27374E-13) scale(-1,1)">
				<title>工作表.1074</title>
				<rect x="0" y="272.976" width="10.7717" height="10.4882" class="st21"/>
			</g>
			<g id="shape1075-172" v:mID="1075" v:groupContext="shape" transform="translate(10.7716,-0.0708325) scale(-1,1)">
				<title>工作表.1075</title>
				<rect x="0" y="272.976" width="10.7717" height="10.4882" class="st22"/>
			</g>
			<g id="shape1076-174" v:mID="1076" v:groupContext="shape" transform="translate(53.8583,-20.8346) scale(-1,1)">
				<title>工作表.1076</title>
				<rect x="0" y="272.976" width="10.7717" height="10.4882" class="st18"/>
			</g>
			<g id="shape1077-176" v:mID="1077" v:groupContext="shape" transform="translate(43.0867,-20.8346) scale(-1,1)">
				<title>工作表.1077</title>
				<rect x="0" y="272.976" width="10.7717" height="10.4882" class="st19"/>
			</g>
			<g id="shape1078-178" v:mID="1078" v:groupContext="shape" transform="translate(21.5433,-20.8346) scale(-1,1)">
				<title>工作表.1078</title>
				<rect x="0" y="272.976" width="10.7717" height="10.4882" class="st21"/>
			</g>
		</g>
		<g id="shape1079-180" v:mID="1079" v:groupContext="shape" transform="translate(191.339,-191.409)">
			<title>工作表.1079</title>
			<path d="M0 283.46 L20.21 263.25 L62.36 263.25" class="st24"/>
		</g>
		<g id="shape1080-186" v:mID="1080" v:groupContext="shape" transform="translate(189.921,-127.084)">
			<title>工作表.1080</title>
			<path d="M0 283.46 L20.21 270.34 L62.36 270.34" class="st24"/>
		</g>
		<g id="shape1081-191" v:mID="1081" v:groupContext="shape" transform="translate(189.921,-56.3234)">
			<title>工作表.1081</title>
			<path d="M0 283.46 L20.21 274.59 L62.36 274.59" class="st24"/>
		</g>
		<g id="shape1082-196" v:mID="1082" v:groupContext="shape" transform="translate(254.409,-191.409)">
			<title>工作表.1082</title>
			<desc>Attention score 1</desc>
			<v:textBlock v:margins="rect(4,4,4,4)" v:tabSpace="42.5197"/>
			<v:textRect cx="40.3937" cy="265.868" width="80.79" height="35.1933"/>
			<rect x="0" y="248.271" width="80.7874" height="35.1933" rx="5.66929" ry="5.66929" class="st25"/>
			<text x="8.73" y="262.37" class="st26" v:langID="2052"><v:paragraph v:spLine="-1" v:horizAlign="1"/><v:tabList/>Attention<v:newlineChar/><tspan
						x="16.37" dy="1em" class="st27">score 1</tspan></text>		</g>
		<g id="shape1083-200" v:mID="1083" v:groupContext="shape" transform="translate(252.283,-119.593)">
			<title>工作表.1083</title>
			<desc>Attention score 2</desc>
			<v:textBlock v:margins="rect(4,4,4,4)" v:tabSpace="42.5197"/>
			<v:textRect cx="40.3937" cy="265.868" width="80.79" height="35.1933"/>
			<rect x="0" y="248.271" width="80.7874" height="35.1933" rx="5.66929" ry="5.66929" class="st25"/>
			<text x="8.73" y="262.37" class="st26" v:langID="2052"><v:paragraph v:spLine="-1" v:horizAlign="1"/><v:tabList/>Attention<v:newlineChar/><tspan
						x="16.37" dy="1em" class="st27">score 2</tspan></text>		</g>
		<g id="shape1084-204" v:mID="1084" v:groupContext="shape" transform="translate(252.283,-43.1635)">
			<title>工作表.1084</title>
			<desc>Attention score n</desc>
			<v:textBlock v:margins="rect(4,4,4,4)" v:tabSpace="42.5197"/>
			<v:textRect cx="40.3937" cy="265.868" width="80.79" height="35.1933"/>
			<rect x="0" y="248.271" width="80.7874" height="35.1933" rx="5.66929" ry="5.66929" class="st25"/>
			<text x="8.73" y="262.37" class="st26" v:langID="2052"><v:paragraph v:spLine="-1" v:horizAlign="1"/><v:tabList/>Attention<v:newlineChar/><tspan
						x="16.16" dy="1em" class="st27">score n</tspan></text>		</g>
		<g id="shape1085-208" v:mID="1085" v:groupContext="shape" transform="translate(335.197,-209.764)">
			<title>工作表.1085</title>
			<path d="M0 283.46 L29.83 283.46" class="st13"/>
		</g>
		<g id="shape1086-213" v:mID="1086" v:groupContext="shape" transform="translate(333.071,-136.063)">
			<title>工作表.1086</title>
			<path d="M0 283.46 L29.83 283.46" class="st13"/>
		</g>
		<g id="shape1087-218" v:mID="1087" v:groupContext="shape" transform="translate(333.071,-59.5276)">
			<title>工作表.1087</title>
			<path d="M0 283.46 L29.83 283.46" class="st13"/>
		</g>
	</g>
</svg>
