<?xml version="1.0" encoding="UTF-8"?>
<svg id="a" data-name="图层 6" xmlns="http://www.w3.org/2000/svg" xmlns:xlink="http://www.w3.org/1999/xlink" viewBox="0 0 575.8 712.88">
  <defs>
    <style>
      .j {
        fill: url(#h);
      }

      .k {
        fill: url(#i);
      }

      .l {
        fill: #015896;
      }

      .m {
        fill: url(#f);
      }

      .n {
        fill: url(#g);
      }

      .o {
        fill: #07b0c6;
      }

      .p {
        fill: #97e8bd;
      }

      .q {
        fill: #026990;
      }

      .r {
        fill: #0172a4;
      }

      .s {
        fill: #025e8e;
      }

      .t {
        fill: url(#e);
      }

      .u {
        fill: #048399;
      }

      .v {
        fill: url(#d);
      }

      .w {
        fill: #8df2fb;
      }

      .x {
        stroke: #0091b3;
        stroke-width: 12px;
      }

      .x, .y {
        fill: none;
        stroke-linecap: round;
        stroke-linejoin: round;
      }

      .z {
        fill: url(#b);
      }

      .aa {
        fill: #016c9a;
      }

      .ab {
        fill: #0592b1;
      }

      .ac {
        fill: url(#c);
      }

      .y {
        stroke: #015e8c;
        stroke-width: 22px;
      }

      .ad {
        fill: #9eecbd;
      }

      .ae {
        fill: #66e0e5;
      }
    </style>
    <linearGradient id="b" data-name="未命名的渐变 5" x1="18.94" y1="553.01" x2="130.07" y2="410.58" gradientUnits="userSpaceOnUse">
      <stop offset="0" stop-color="#0080c5"/>
      <stop offset="1" stop-color="#82e090"/>
    </linearGradient>
    <linearGradient id="c" data-name="未命名的渐变 5" x1="498.49" y1="558.44" x2="534.49" y2="464.53" xlink:href="#b"/>
    <linearGradient id="d" data-name="未命名的渐变 11" x1="454.96" y1="362.74" x2="454.96" y2="281.35" gradientUnits="userSpaceOnUse">
      <stop offset="0" stop-color="#04adc7"/>
      <stop offset="1" stop-color="#40cbb7"/>
    </linearGradient>
    <linearGradient id="e" data-name="未命名的渐变 11" x1="389.97" y1="323.41" x2="396.23" y2="177.84" xlink:href="#d"/>
    <linearGradient id="f" data-name="未命名的渐变 11" x1="297.11" y1="318.68" x2="303.37" y2="90.16" xlink:href="#d"/>
    <linearGradient id="g" data-name="未命名的渐变 11" x1="227.49" y1="317.87" x2="227.49" y2="187.92" xlink:href="#d"/>
    <linearGradient id="h" data-name="未命名的渐变 7" x1="125.92" y1="364.72" x2="17.92" y2="200.37" gradientUnits="userSpaceOnUse">
      <stop offset="0" stop-color="#0fb3a9"/>
      <stop offset="1" stop-color="#82e090"/>
    </linearGradient>
    <linearGradient id="i" data-name="未命名的渐变 5" x1="113.53" y1="657.17" x2="444.57" y2="382.48" xlink:href="#b"/>
  </defs>
  <line class="x" x1="286.38" y1="70.7" x2="286.38" y2="6"/>
  <path class="l" d="M0,504.63c0-16.14,4.93-32.56,14.96-45.49,10.06-12.97,24.78-21.72,41.73-21.72s31.67,8.75,41.73,21.72c10.02,12.93,14.96,29.35,14.96,45.48s-4.93,32.56-14.96,45.49c-10.06,12.97-24.78,21.72-41.73,21.72s-31.67-8.75-41.73-21.72c-10.02-12.93-14.96-29.35-14.96-45.48Z"/>
  <path class="z" d="M19.51,504.63c0-11.06,2.97-22.55,9.3-31.83,6.31-9.26,16.01-16.29,27.88-16.29s21.57,7.03,27.88,16.29c6.32,9.28,9.3,20.77,9.3,31.83s-2.97,22.55-9.3,31.83c-6.31,9.26-16.01,16.29-27.88,16.29s-21.57-7.03-27.88-16.29c-6.32-9.28-9.3-20.77-9.3-31.83Z"/>
  <path class="u" d="M575.8,504.63c0-16.14-4.93-32.56-14.96-45.49-10.06-12.97-24.78-21.72-41.73-21.72s-31.67,8.75-41.73,21.72c-10.02,12.93-14.96,29.35-14.96,45.48s4.93,32.56,14.96,45.49c10.06,12.97,24.78,21.72,41.73,21.72s31.67-8.75,41.73-21.72c10.02-12.93,14.96-29.35,14.96-45.48Z"/>
  <path class="ac" d="M556.3,504.63c0-11.06-2.97-22.55-9.3-31.83-6.31-9.26-16.01-16.29-27.88-16.29s-21.57,7.03-27.88,16.29c-6.32,9.28-9.3,20.77-9.3,31.83s2.97,22.55,9.3,31.83c6.31,9.26,16.01,16.29,27.88,16.29s21.57-7.03,27.88-16.29c6.32-9.28,9.3-20.77,9.3-31.83Z"/>
  <polygon class="o" points="269.68 113.65 269.68 128.05 258.48 131.91 258.48 117.51 269.68 113.65"/>
  <path class="s" d="M219.97,480.34c4.79,5.84,7.2,13.34,7.2,20.81s-2.41,14.96-7.2,20.8c-4.81,5.86-11.71,9.63-19.47,9.63s-14.65-3.77-19.46-9.63c-4.79-5.84-7.2-13.34-7.2-20.8s2.41-14.97,7.2-20.81c4.81-5.85,11.71-9.62,19.46-9.62s14.66,3.76,19.47,9.62Z"/>
  <path class="q" d="M392.8,480.34c4.79,5.84,7.2,13.34,7.2,20.81s-2.41,14.96-7.2,20.8c-4.81,5.86-11.71,9.63-19.46,9.63s-14.66-3.77-19.47-9.63c-4.79-5.84-7.2-13.34-7.2-20.8s2.41-14.97,7.2-20.81c4.81-5.86,11.71-9.62,19.47-9.62s14.65,3.77,19.46,9.62Z"/>
  <path class="v" d="M462.7,282.74v80.92c-4.95-4.1-10.13-7.97-15.48-11.61v-80.69c5.16,3.79,10.32,7.58,15.48,11.38Z"/>
  <polygon class="p" points="388.15 202.84 388.15 326.99 381.4 324.78 381.4 324.77 381.4 199.22 388.15 202.84"/>
  <polygon class="p" points="402.37 211.37 402.37 331.64 395.61 329.43 395.61 207.75 402.37 211.37"/>
  <polygon class="t" points="409.48 199.92 409.48 333.97 402.37 331.64 402.37 211.37 395.61 207.75 395.61 329.43 388.15 326.99 388.15 202.84 381.4 199.22 381.4 324.77 376.5 323.17 376.5 172.04 409.48 199.92"/>
  <path class="ab" d="M315.92,87.46l-30.51-22.91v-15.39c14.36,10.3,28.71,20.61,43.06,30.92v15.39h-1.89l-10.66-8.01Z"/>
  <polygon class="ad" points="315.92 144.23 315.92 153.93 293.41 140.59 293.41 130.89 315.92 144.23"/>
  <polygon class="ad" points="315.92 116.06 315.92 125.76 293.41 112.42 293.41 102.72 315.92 116.06"/>
  <polygon class="ad" points="315.92 280.28 315.92 289.98 293.41 276.64 293.41 266.94 315.92 280.28"/>
  <polygon class="ad" points="315.92 253 315.92 262.7 293.41 249.36 293.41 239.66 315.92 253"/>
  <polygon class="ad" points="315.92 225.54 315.92 235.24 293.41 221.9 293.41 212.2 315.92 225.54"/>
  <polygon class="ad" points="315.92 198.08 315.92 207.78 293.41 194.44 293.41 184.74 315.92 198.08"/>
  <polygon class="ad" points="315.92 170.62 315.92 180.32 293.41 166.98 293.41 157.29 315.92 170.62"/>
  <path class="m" d="M315.92,289.98v23.06h-30.51V64.55l30.51,22.91v28.6l-22.51-13.34v9.7l22.51,13.34v18.47l-22.51-13.34v9.7l22.51,13.34v16.69l-22.51-13.33v9.69l22.51,13.34v17.76l-22.51-13.34v9.7l22.51,13.34v17.76l-22.51-13.34v9.7l22.51,13.34v17.76l-22.51-13.34v9.7l22.51,13.34v17.58l-22.51-13.34v9.7l22.51,13.34Z"/>
  <polygon class="o" points="269.68 152.09 269.68 166.5 258.48 170.36 258.48 155.95 269.68 152.09"/>
  <polygon class="o" points="269.68 188.41 269.68 202.81 258.48 206.67 258.48 192.27 269.68 188.41"/>
  <polygon class="o" points="269.68 225.79 269.68 240.19 258.48 244.05 258.48 229.65 269.68 225.79"/>
  <polygon class="o" points="197.03 273.74 197.03 284.3 164.04 299.93 164.04 289.37 197.03 273.74"/>
  <polygon class="o" points="197.03 249.17 197.03 259.74 164.04 275.37 164.04 264.8 197.03 249.17"/>
  <polygon class="o" points="197.03 223.37 197.03 233.93 164.04 249.56 164.04 239 197.03 223.37"/>
  <polygon class="o" points="197.03 197.29 197.03 207.85 164.04 223.48 164.04 212.92 197.03 197.29"/>
  <polygon class="n" points="243.91 193.06 243.91 315.24 211.07 321.12 211.07 171.97 243.91 193.06"/>
  <path class="j" d="M108.95,261.66c6.67,18.55,7.2,38.8,0,62.87-12.74-38.43-38.96-75.39-64.9-90.01,23.17,21.98,41.96,59.3,50.18,96.7-49.87-11.77-67.13-31.34-77.15-51.48-10.01-20.15-12.77-40.87-13.45-54.84-.67-13.97,.75-21.17,1.63-24.83,.89-3.66,1.24-3.78,2.13-3.84,.88-.06,2.3-.06,13.93,2.16,11.64,2.21,33.49,6.64,50.82,17.27,17.33,10.63,30.14,27.46,36.81,46Z"/>
  <path class="r" d="M498.84,404.89c20.69,34.29,26.69,77.17,24.01,117.68-2.67,40.5-14.01,78.62-35.46,107.89-21.45,29.27-52.99,49.7-88.09,62.97s-73.75,19.38-113.24,19.45c-39.48,.07-79.8-5.9-114.43-19.4-34.62-13.51-63.56-34.56-84.68-63.9-21.12-29.34-34.42-66.99-37.75-105.72-3.33-38.73,3.32-78.55,22.54-113.67,7.29-13.34,16.4-25.99,26.96-37.49,.23-13.3-1.37-27.4-4.47-41.48-8.22-37.4-27.01-74.72-50.18-96.7,25.94,14.62,52.16,51.58,64.9,90.01,3.48,10.51,5.96,21.13,7.15,31.43,9.91-8.42,20.7-15.88,32.16-22.1V190.97c19.65-12.62,39.3-25.23,58.95-37.85,12.34,7.92,24.69,15.85,37.03,23.78V80.08c13.73-10.31,27.45-20.62,41.17-30.92V313.04h30.51V87.46l10.66,8.01h1.89v123.61c4.38-1.31,8.76-2.62,13.14-3.94v-40.39c10.94-7.12,21.87-14.23,32.81-21.34,15.82,14.23,31.65,28.45,47.47,42.67v69.16c7.93-2.99,15.86-5.98,23.79-8.97,9.47,6.2,18.93,12.4,28.39,18.59v99.04c9.56,9.36,17.96,19.71,24.77,30.99Zm1.57,116.83c1.8-35.97-4.9-73.74-23.69-104.46-18.79-30.72-49.68-54.4-83.4-68.49-33.71-14.08-70.27-18.58-107.05-18.12-36.78,.46-73.79,5.89-107.5,21.06-33.72,15.18-64.14,40.1-83.06,70.36-18.92,30.26-26.34,65.86-24.01,100.52,2.33,34.67,14.4,68.39,33.58,94.69,19.17,26.29,45.45,45.15,76.88,57.25,31.44,12.1,68.05,17.44,103.9,17.38,35.85-.06,70.94-5.54,102.81-17.42,31.86-11.89,60.5-30.2,79.97-56.43,19.48-26.23,29.77-60.38,31.57-96.34Zm-37.71-158.06v-80.92c-5.16-3.8-10.32-7.59-15.48-11.38v80.69c5.35,3.64,10.53,7.51,15.48,11.61Zm-53.22-29.69V199.92l-32.98-27.88v151.13l4.9,1.6h0s6.75,2.22,6.75,2.22l7.46,2.44,6.76,2.21,7.11,2.33Zm-139.8-93.78v-14.4l-11.2,3.86v14.4l11.2-3.86Zm0-37.38v-14.4l-11.2,3.86v14.4l11.2-3.86Zm0-36.31v-14.41l-11.2,3.86v14.41l11.2-3.86Zm0-38.45v-14.4l-11.2,3.86v14.4l11.2-3.86Zm-25.77,187.19v-122.18l-32.84-21.09v149.15l32.84-5.88Zm-46.88-30.94v-10.56l-32.99,15.63v10.56l32.99-15.63Zm0-24.56v-10.57l-32.99,15.63v10.57l32.99-15.63Zm0-25.81v-10.56l-32.99,15.63v10.56l32.99-15.63Zm0-26.08v-10.56l-32.99,15.63v10.56l32.99-15.63Z"/>
  <path class="k" d="M476.72,417.26c18.79,30.72,25.49,68.49,23.69,104.46-1.8,35.96-12.09,70.11-31.57,96.34-19.47,26.23-48.11,44.54-79.97,56.43-31.87,11.88-66.96,17.36-102.81,17.42-35.85,.06-72.46-5.28-103.9-17.38-31.43-12.1-57.71-30.96-76.88-57.25-19.18-26.3-31.25-60.02-33.58-94.69-2.33-34.66,5.09-70.26,24.01-100.52,18.92-30.26,49.34-55.18,83.06-70.36,33.71-15.17,70.72-20.6,107.5-21.06,36.78-.46,73.34,4.04,107.05,18.12,33.72,14.09,64.61,37.77,83.4,68.49Zm-.8,105.27c.81-31.7-6.73-64.34-23.44-88.49-16.72-24.15-42.6-39.8-71.8-49.66-29.19-9.85-61.7-13.9-94.41-13.76-32.7,.14-65.62,4.47-94.4,15.1s-53.43,27.56-70.26,51.57c-16.82,24.01-25.82,55.1-24.95,85.83s11.6,61.11,28.66,84.79c17.05,23.68,40.41,40.66,68.37,51.56,27.96,10.9,60.51,15.71,92.62,15.95s63.77-4.1,92.11-14.8c28.34-10.71,53.35-27.79,70.44-51.71,17.09-23.91,26.25-54.67,27.06-86.38Z"/>
  <path class="aa" d="M113.5,521.21c.38,27.56,9.17,54.84,25.29,76.53,16.31,21.95,40.13,38.17,65.96,47.85,25.83,9.68,53.66,12.82,81.41,12.96,27.74,.14,55.38-2.73,81.52-11.99s50.78-24.93,67.37-47.5c14.5-19.73,22.85-44.76,24.75-69.66,.28-3.58,.42-7.16,.43-10.72,.05-28.32-8.37-55.48-25.06-75.47-16.7-19.99-41.65-32.82-67.44-40.13-25.79-7.31-52.4-9.11-79.3-9.38-26.89-.27-54.07,.99-80.5,8.3-26.43,7.31-52.12,20.66-69.18,41.41-17.05,20.75-25.47,48.89-25.27,76.8,0,.33,0,.67,.02,1Zm338.98-87.17c16.71,24.15,24.25,56.79,23.44,88.49-.81,31.71-9.97,62.47-27.06,86.38-17.09,23.92-42.1,41-70.44,51.71-28.34,10.7-60,15.04-92.11,14.8s-64.66-5.05-92.62-15.95c-27.96-10.9-51.32-27.88-68.37-51.56-17.06-23.68-27.79-54.06-28.66-84.79s8.13-61.82,24.95-85.83c16.83-24.01,41.48-40.94,70.26-51.57s61.7-14.96,94.4-15.1c32.71-.14,65.22,3.91,94.41,13.76,29.2,9.86,55.08,25.51,71.8,49.66Z"/>
  <path class="ae" d="M138.34,456.17c-14.66,17.84-22.94,41.13-24.84,65.04-.01-.33-.02-.67-.02-1-.2-27.91,8.22-56.05,25.27-76.8,17.06-20.75,42.75-34.1,69.18-41.41,26.43-7.31,53.61-8.57,80.5-8.3,26.9,.27,53.51,2.07,79.3,9.38,25.79,7.31,50.74,20.14,67.44,40.13,16.69,19.99,25.11,47.15,25.06,75.47,0,3.56-.15,7.14-.43,10.72-.34-27.58-8.76-53.92-25.05-73.43-16.69-20-41.64-32.82-67.43-40.13-25.79-7.31-52.4-9.11-79.3-9.38-26.89-.27-54.07,.99-80.5,8.29-26.43,7.31-52.13,20.67-69.18,41.42Z"/>
  <path class="w" d="M434.75,455.97c16.29,19.51,24.71,45.85,25.05,73.43-1.9,24.9-10.25,49.93-24.75,69.66-16.59,22.57-41.23,38.24-67.37,47.5s-53.78,12.13-81.52,11.99c-27.75-.14-55.58-3.28-81.41-12.96-25.83-9.68-49.65-25.9-65.96-47.85-16.12-21.69-24.91-48.97-25.29-76.53,1.9-23.91,10.18-47.2,24.84-65.04,17.05-20.75,42.75-34.11,69.18-41.42,26.43-7.3,53.61-8.56,80.5-8.29,26.9,.27,53.51,2.07,79.3,9.38,25.79,7.31,50.74,20.13,67.43,40.13Zm-34.75,45.18c0-7.47-2.41-14.97-7.2-20.81-4.81-5.85-11.71-9.62-19.46-9.62s-14.66,3.76-19.47,9.62c-4.79,5.84-7.2,13.34-7.2,20.81s2.41,14.96,7.2,20.8c4.81,5.86,11.71,9.63,19.47,9.63s14.65-3.77,19.46-9.63c4.79-5.84,7.2-13.34,7.2-20.8Zm-172.83,0c0-7.47-2.41-14.97-7.2-20.81-4.81-5.86-11.71-9.62-19.47-9.62s-14.65,3.77-19.46,9.62c-4.79,5.84-7.2,13.34-7.2,20.81s2.41,14.96,7.2,20.8c4.81,5.86,11.71,9.63,19.46,9.63s14.66-3.77,19.47-9.63c4.79-5.84,7.2-13.34,7.2-20.8Z"/>
  <path class="y" d="M238.6,565.41c11.34,14.78,28.6,23.92,47.4,24.23,18.78,.31,36.32-8.26,48.11-22.69"/>
</svg>